<?xml version="1.0" encoding="utf-8"?>
<!-- Generator: Adobe Illustrator 17.0.0, SVG Export Plug-In . SVG Version: 6.00 Build 0)  -->
<!DOCTYPE svg PUBLIC "-//W3C//DTD SVG 1.1//EN" "http://www.w3.org/Graphics/SVG/1.1/DTD/svg11.dtd">
<svg version="1.1" id="Camada_1" xmlns="http://www.w3.org/2000/svg" xmlns:xlink="http://www.w3.org/1999/xlink" x="0px" y="0px"
	 width="403.825px" height="400.882px" viewBox="0 0 403.825 400.882" enable-background="new 0 0 403.825 400.882"
	 xml:space="preserve">
<g>
	<path fill="#846242" d="M351.005,185.653c0,80.466-54.434,174.58-164.395,201.805c-1.819,0.45-6.113-6.113-6.113-6.113
		l6.391-24.685c0,0,0.948-6.613,0-6.613c-90.793,0-164.672-73.602-164.672-164.395S95.817,21.258,186.61,21.258
		S351.005,94.86,351.005,185.653z"/>
	<path fill="#F4C25F" d="M344.892,179.54c0,80.466-54.434,174.58-164.395,201.805c-1.819,0.45-1.325-5.885-1.325-5.885l1.602-24.913
		c0,0,0.948-6.613,0-6.613c-90.793,0-164.672-73.602-164.672-164.395S89.704,15.145,180.497,15.145S344.892,88.747,344.892,179.54z"
		/>
	<g>
		<g>
			<g>
				<path fill="#80664E" d="M136.413,171.094c-6.049,15.301-17.881,26.012-30.502,30.347c-8.941,18.617-22.35,29.583-39.18,29.583
					c-18.141,0-26.03-18.362-26.03-41.568c0-14.281,2.892-30.348,8.152-45.394l9.466,2.295
					c2.892-19.637,13.935-36.722,32.605-36.722c17.615,0,26.819,19.636,26.819,42.588c0,12.496-3.154,25.502-6.575,36.723
					c6.838-3.061,13.15-9.436,17.881-21.422C130.627,167.523,136.413,169.563,136.413,171.094z M81.984,201.696
					c-11.044-4.08-18.144-14.281-21.824-26.521c-0.526,3.825-0.789,7.651-0.789,10.965c0,15.046,4.206,25.502,10.781,25.502
					c0.789,0,1.314,0,2.103-0.255C75.672,210.366,78.826,206.797,81.984,201.696z M71.466,160.638
					c0,13.772,4.206,27.032,16.038,30.348c5.786-13.517,9.729-31.368,9.729-44.884c0-11.475-2.892-20.146-10.255-20.146
					c-0.526,0-1.314,0.255-1.84,0.255C77.512,127.74,71.466,144.316,71.466,160.638z"/>
				<path fill="#80664E" d="M155.862,115.245l-1.051,4.845c5.523-5.355,12.358-8.671,19.721-8.671
					c18.93,0,24.979,18.107,24.979,44.374c0,11.476-2.892,23.972-7.101,35.193c7.889-3.316,14.99-10.201,20.247-23.462
					c1.577,0,7.363,2.04,7.363,3.571c-6.312,16.321-19.458,27.542-32.868,31.367c-8.678,15.301-20.51,27.287-32.868,27.287
					c-19.458,0-26.293-17.086-26.293-43.098c0-15.811,2.629-34.938,6.572-55.594c12.358-65.795,19.721-106.088,44.7-106.088
					c10.781,0,15.515,5.865,15.515,15.046c0,16.576-14.99,44.119-38.128,70.895L155.862,115.245z M166.643,202.461
					c-9.729-2.295-15.775-8.416-19.458-16.321c0,14.791,1.314,24.737,7.626,24.737C159.279,210.876,163.225,207.817,166.643,202.461
					z M168.745,127.995c-11.832,0-19.192,15.556-19.192,31.622c0,14.792,6.572,30.348,21.558,33.408
					c4.735-12.241,7.626-28.307,7.626-42.333C178.738,136.666,175.583,127.995,168.745,127.995z M182.947,45.114
					c0-2.295-1.055-3.57-2.369-3.57c-1.84,0-7.886,2.55-19.718,50.749c8.412-11.986,18.404-28.563,21.824-45.139
					C182.684,46.389,182.947,45.624,182.947,45.114z"/>
				<path fill="#80664E" d="M286.211,106.323l6.113,6.116c-7.889,33.918-12.884,61.46-16.567,86.707
					c-0.526,2.805-0.526,4.845-0.526,6.63c0,3.825,0.789,5.61,2.106,5.61c2.892,0,14.2-14.731,26.821-46.354
					c0.37,0-7.164-3.71-6.378-3.626c8.581,0.922,13.237,9.123,13.237,10.295c-16.041,40.803-28.685,58.047-40.78,58.047
					c-8.415,0-13.146-7.395-13.146-24.992c0-0.765,0-1.785,0-2.805c-6.049,15.556-15.253,29.073-30.502,29.073
					c-12.884,0-18.144-13.772-18.144-32.387c0-35.958,20.247-89.002,45.226-89.002c9.729,0,15.253,5.61,17.093,17.086
					L286.211,106.323z M230.532,196.085c0,7.906,1.577,13.261,5.523,13.261c12.095,0,27.082-41.568,27.082-65.285
					c0-9.435-2.366-16.066-8.149-16.066C243.944,127.995,230.532,172.879,230.532,196.085z"/>
				<path fill="#80664E" d="M307.567,218.017c0-9.181,6.835-20.146,18.404-20.146c8.678,0,12.358,6.12,12.358,13.261
					c0,9.181-6.835,19.892-18.404,19.892C311.51,231.023,307.567,224.902,307.567,218.017z M384.606,48.429
					c-19.455,45.648-32.602,83.646-46.803,136.69l-14.724-2.295c0.354-1.68-6.496-4.468-6.113-6.116
					c12.411-53.396,46.735-89.372,61.528-134.395L384.606,48.429z"/>
			</g>
		</g>
		<g>
			<g>
				<path fill="#FFFFFF" d="M130.3,164.977c-6.048,15.301-17.88,26.012-30.502,30.347c-8.939,18.617-22.35,29.583-39.178,29.583
					c-18.143,0-26.03-18.362-26.03-41.568c0-14.281,2.892-30.348,8.15-45.394l9.466,2.295c2.892-19.637,13.935-36.722,32.605-36.722
					c17.617,0,26.819,19.636,26.819,42.588c0,12.496-3.154,25.502-6.573,36.723c6.836-3.061,13.148-9.436,17.88-21.422
					C124.515,161.407,130.3,163.447,130.3,164.977z M75.871,195.579c-11.044-4.08-18.143-14.281-21.824-26.521
					c-0.526,3.825-0.789,7.651-0.789,10.965c0,15.046,4.207,25.502,10.781,25.502c0.789,0,1.314,0,2.103-0.255
					C69.56,204.25,72.715,200.68,75.871,195.579z M65.353,154.521c0,13.772,4.207,27.032,16.04,30.348
					c5.785-13.517,9.729-31.368,9.729-44.884c0-11.475-2.893-20.146-10.255-20.146c-0.526,0-1.314,0.255-1.84,0.255
					C71.4,121.624,65.353,138.2,65.353,154.521z"/>
				<path fill="#FFFFFF" d="M149.75,109.128l-1.051,4.845c5.522-5.355,12.358-8.671,19.72-8.671c18.931,0,24.98,18.107,24.98,44.374
					c0,11.476-2.893,23.972-7.101,35.193c7.889-3.316,14.988-10.201,20.247-23.462c1.577,0,7.362,2.04,7.362,3.571
					c-6.31,16.321-19.457,27.542-32.868,31.367c-8.676,15.301-20.508,27.287-32.866,27.287c-19.458,0-26.295-17.086-26.295-43.098
					c0-15.811,2.629-34.938,6.573-55.594c12.358-65.795,19.721-106.088,44.7-106.088c10.781,0,15.514,5.865,15.514,15.046
					c0,16.576-14.988,44.119-38.127,70.895L149.75,109.128z M160.531,196.344c-9.729-2.295-15.777-8.416-19.458-16.321
					c0,14.791,1.314,24.737,7.626,24.737C153.167,204.76,157.112,201.7,160.531,196.344z M162.634,121.879
					c-11.832,0-19.194,15.556-19.194,31.622c0,14.792,6.573,30.348,21.56,33.408c4.733-12.241,7.626-28.307,7.626-42.333
					C172.626,130.549,169.47,121.879,162.634,121.879z M176.833,38.998c0-2.295-1.053-3.57-2.367-3.57
					c-1.84,0-7.888,2.55-19.72,50.749c8.413-11.986,18.405-28.563,21.824-45.139C176.57,40.273,176.833,39.508,176.833,38.998z"/>
				<path fill="#FFFFFF" d="M267.543,106.323h18.668c-7.888,33.918-12.884,61.46-16.565,86.707c-0.526,2.805-0.526,4.845-0.526,6.63
					c0,3.825,0.789,5.61,2.105,5.61c2.892,0,13.935-12.241,26.556-43.864c1.579,0,7.363,2.04,7.363,3.571
					c-16.04,40.803-28.925,58.655-41.02,58.655c-8.413,0-13.146-7.395-13.146-24.992c0-0.765,0-1.785,0-2.805
					c-6.048,15.556-15.251,29.073-30.502,29.073c-12.884,0-18.143-13.772-18.143-32.387c0-35.958,20.247-89.002,45.226-89.002
					c9.729,0,15.251,5.61,17.091,17.086L267.543,106.323z M224.42,189.969c0,7.906,1.577,13.261,5.522,13.261
					c12.095,0,27.083-41.568,27.083-65.285c0-9.435-2.366-16.066-8.15-16.066C237.831,121.879,224.42,166.763,224.42,189.969z"/>
				<path fill="#FFFFFF" d="M301.454,211.901c0-9.181,6.836-20.146,18.405-20.146c8.676,0,12.358,6.12,12.358,13.261
					c0,9.181-6.836,19.892-18.405,19.892C305.397,224.907,301.454,218.786,301.454,211.901z M378.494,42.313
					c-19.457,45.648-32.603,83.646-46.803,136.69l-14.725-2.295c11.834-56.105,22.087-94.102,37.338-140.516L378.494,42.313z"/>
			</g>
		</g>
	</g>
	<g>
		<g>
			<path fill="#846242" d="M74.832,280.358c-0.404-0.228-0.806-0.57-1.209-1.026c-0.404-0.456-0.775-0.97-1.109-1.541
				c-0.336-0.57-0.631-1.156-0.882-1.76c-0.252-0.603-0.429-1.181-0.53-1.736c-0.067-0.456-0.1-1.01-0.1-1.663
				c0-0.652,0.235-1.189,0.706-1.613l0.152-0.099h0.15c0.067,0,0.127-0.007,0.177-0.024c0.05-0.016,0.11-0.024,0.177-0.024
				c0.873,0,1.463,0.376,1.765,1.125c0.1,0.261,0.16,0.546,0.177,0.856c0.016,0.31,0.025,0.611,0.025,0.904c0,0.164,0,0.311,0,0.44
				c0,0.131,0.016,0.228,0.05,0.293v0.049c0.167,0.555,0.419,1.166,0.756,1.835c0.336,0.668,0.723,1.182,1.161,1.54
				c0.404,0.293,0.857,0.513,1.361,0.66c0.504,0.146,1.015,0.253,1.538,0.318c0.521,0.066,1.033,0.106,1.538,0.122
				c0.504,0.017,0.958,0.025,1.361,0.025h0.202c2.083,0,3.924-0.473,5.52-1.418c1.598-0.946,2.765-2.233,3.505-3.864
				c0.673-1.467,0.857-2.967,0.555-4.499c-0.304-1.532-1.044-2.917-2.219-4.157c-0.775-0.782-1.807-1.361-3.101-1.736
				c-1.296-0.374-2.647-0.692-4.059-0.954c-1.311-0.293-2.555-0.602-3.732-0.929c-1.178-0.326-2.151-0.832-2.924-1.516
				c-0.404-0.325-0.79-0.766-1.161-1.321c-0.369-0.554-0.681-1.157-0.933-1.81c-0.252-0.652-0.437-1.328-0.554-2.029
				c-0.119-0.701-0.16-1.378-0.127-2.03c0.067-1.238,0.394-2.396,0.984-3.472c0.587-1.076,1.386-2.037,2.394-2.885
				c0.975-0.814,2.051-1.435,3.228-1.859c1.177-0.423,2.403-0.635,3.68-0.635c1.815,0,3.563,0.457,5.245,1.369
				c0.202,0.098,0.487,0.261,0.857,0.489c0.369,0.228,0.713,0.506,1.033,0.832c0.319,0.326,0.563,0.685,0.732,1.076
				c0.167,0.391,0.167,0.832,0,1.321l-0.152,0.391l-0.404-0.098c-0.773-0.13-1.429-0.334-1.967-0.611
				c-0.538-0.277-1.042-0.546-1.511-0.807c-0.538-0.325-1.051-0.603-1.538-0.832c-0.488-0.228-1.102-0.342-1.842-0.342
				c-0.437,0-1.025,0.081-1.765,0.244c-0.673,0.164-1.327,0.465-1.965,0.905c-0.64,0.44-1.228,1.019-1.765,1.736
				c-0.505,0.652-0.917,1.378-1.236,2.176c-0.319,0.8-0.513,1.573-0.579,2.323c-0.034,0.326-0.027,0.71,0.025,1.149
				c0.05,0.44,0.177,0.897,0.377,1.37c0.202,0.473,0.513,0.913,0.934,1.32c0.419,0.408,1,0.758,1.738,1.051
				c0.538,0.228,1.084,0.376,1.64,0.44c0.554,0.066,1.117,0.131,1.688,0.196c0.369,0.033,0.715,0.066,1.034,0.098
				c0.319,0.033,0.646,0.082,0.983,0.147c2.151,0.457,4.101,1.345,5.85,2.665c1.746,1.32,3.025,2.877,3.832,4.671
				c0.235,0.555,0.444,1.182,0.631,1.882c0.183,0.702,0.277,1.46,0.277,2.274c0,0.815-0.135,1.696-0.404,2.641
				c-0.269,0.946-0.706,1.924-1.311,2.935c-0.975,1.565-2.655,2.82-5.041,3.765c-1.076,0.456-2.228,0.79-3.455,1.002
				c-1.227,0.212-2.446,0.318-3.655,0.318C78.915,282.021,76.647,281.466,74.832,280.358z"/>
			<path fill="#846242" d="M111.541,243.898c0.167-0.016,0.352-0.024,0.554-0.024c0.235-0.032,0.471-0.056,0.706-0.074
				c0.235-0.016,0.487-0.024,0.757-0.024c0.268,0,0.587,0.033,0.958,0.098c0.369,0.066,0.688,0.228,0.958,0.489
				c0.269,0.261,0.386,0.636,0.354,1.125v0.147l-0.102,0.098c-0.336,0.424-0.756,0.692-1.26,0.807
				c-0.505,0.115-1.026,0.171-1.563,0.171c-0.135,0-0.261-0.008-0.379-0.024c-0.117-0.016-0.244-0.025-0.379-0.025h-0.604
				c-0.404,0.033-0.807,0.049-1.211,0.049c-0.404,0-0.84,0.016-1.311,0.049c-1.613,0.033-3.244,0.091-4.891,0.171
				c-1.646,0.082-3.109,0.253-4.386,0.513c0,2.218-0.009,4.524-0.025,6.921c-0.017,2.396-0.059,4.866-0.127,7.41
				c1.042,0.098,2.034,0.164,2.974,0.196c0.942,0.033,1.849,0.048,2.724,0.048c0.671,0,1.302-0.008,1.89-0.024
				c0.588-0.016,1.167-0.041,1.74-0.074c0.235-0.032,0.469-0.065,0.706-0.098c0.235-0.032,0.487-0.065,0.756-0.098
				c0.371-0.065,0.723-0.122,1.059-0.171c0.336-0.049,0.673-0.073,1.009-0.073c1.142,0,2,0.424,2.571,1.271l0.202,0.293
				l-0.302,0.293c-0.438,0.424-0.967,0.677-1.588,0.758c-0.623,0.082-1.253,0.155-1.892,0.22c-0.169,0-0.344,0-0.529,0
				c-0.186,0-0.361,0.017-0.53,0.049c-1.21,0.131-2.471,0.22-3.782,0.269c-1.31,0.048-2.655,0.073-4.034,0.073
				c-0.471,0-0.95,0-1.436,0c-0.488,0-0.967-0.016-1.438-0.048c-0.067,0.685-0.117,1.353-0.15,2.005
				c-0.034,0.652-0.084,1.289-0.152,1.907c-0.169,1.858-0.302,3.619-0.404,5.282c-0.1,1.663-0.167,3.456-0.202,5.38
				c0.84,0.098,1.748,0.146,2.724,0.146c0.806,0,1.621-0.024,2.446-0.074c0.823-0.049,1.638-0.105,2.446-0.171
				c0.773-0.065,1.554-0.13,2.344-0.196c0.79-0.065,1.571-0.098,2.345-0.098c1.175,0,2.167,0.081,2.974,0.244
				c0.807,0.164,1.479,0.408,2.017,0.734l0.354,0.244l-0.202,0.343c-0.336,0.945-1.094,1.418-2.27,1.418
				c-0.269,0-0.554-0.017-0.856-0.049c-0.304-0.033-0.59-0.081-0.857-0.146c-0.504-0.098-0.992-0.147-1.463-0.147
				c-0.74,0-1.486,0.024-2.244,0.074c-0.756,0.049-1.555,0.106-2.396,0.171c-0.873,0.065-1.738,0.122-2.596,0.171
				c-0.857,0.048-1.723,0.073-2.597,0.073c-0.975,0-1.849-0.041-2.622-0.122s-1.496-0.22-2.167-0.415l-0.304-0.098l-0.05-0.343
				c-0.1-2.771-0.11-5.624-0.025-8.559c0.083-2.934,0.177-5.868,0.277-8.803c0.135-3.228,0.244-6.341,0.329-9.341
				c0.083-2.999,0.041-5.885-0.127-8.656v-0.392l0.354-0.098c1.277-0.521,2.84-0.831,4.689-0.929
				c1.848-0.098,3.73-0.163,5.647-0.196c0.739,0,1.446-0.008,2.119-0.025c0.671-0.016,1.327-0.04,1.965-0.073h0.052
				C111.22,243.923,111.372,243.916,111.541,243.898z"/>
			<path fill="#846242" d="M138.416,244.754c0.437-0.261,0.873-0.391,1.311-0.391c0.167,0,0.36,0.049,0.579,0.147
				c0.219,0.098,0.411,0.326,0.58,0.685c0.067,0.196,0.117,0.415,0.152,0.66c0.033,0.244,0.083,0.498,0.15,0.758l0.152,1.027
				c0.437,1.565,0.798,3.007,1.084,4.328c0.285,1.321,0.512,2.601,0.681,3.839c0.067,0.75,0.167,1.467,0.302,2.152
				c0.135,0.685,0.285,1.402,0.454,2.151c0.135,0.587,0.26,1.199,0.379,1.834c0.117,0.636,0.227,1.281,0.327,1.932
				c0.135,0.685,0.261,1.369,0.379,2.054s0.244,1.353,0.379,2.005c0.404,2.25,0.789,4.427,1.159,6.529
				c0.369,2.103,0.638,4.1,0.807,5.99l0.05,0.293l-0.252,0.147c-0.438,0.26-0.825,0.391-1.161,0.391
				c-0.537,0-0.975-0.204-1.31-0.611c-0.336-0.408-0.606-0.921-0.807-1.54c-0.202-0.62-0.361-1.288-0.479-2.005
				c-0.119-0.717-0.211-1.386-0.277-2.005c-0.034-0.163-0.052-0.318-0.052-0.465c0-0.147-0.017-0.286-0.05-0.416
				c-0.235-1.662-0.496-3.398-0.781-5.208c-0.286-1.81-0.588-3.636-0.908-5.478c-0.321-1.842-0.648-3.659-0.984-5.453
				c-0.336-1.792-0.673-3.504-1.008-5.135c-0.371,1.142-0.807,2.405-1.311,3.79c-0.504,1.386-1.026,2.739-1.563,4.06
				c-0.538,1.32-1.069,2.527-1.588,3.619c-0.523,1.092-0.951,1.9-1.286,2.421l-0.102,0.245h-0.252h-0.252
				c-0.875,0-1.563-0.31-2.067-0.929c-0.504-0.619-0.942-1.239-1.311-1.859c-0.067-0.13-0.127-0.252-0.177-0.367
				c-0.05-0.113-0.11-0.22-0.177-0.318c-1.075-1.988-2.134-4.084-3.176-6.285c-1.042-2.201-2.051-4.328-3.025-6.382v-0.098
				c-0.371,1.403-0.623,2.935-0.757,4.598c-0.135,1.662-0.252,3.391-0.352,5.184c-0.034,0.652-0.059,1.296-0.077,1.932
				c-0.017,0.636-0.058,1.28-0.125,1.932c-0.069,0.652-0.127,1.272-0.177,1.859s-0.11,1.191-0.177,1.81
				c-0.067,0.75-0.135,1.524-0.202,2.323c-0.067,0.8-0.185,1.671-0.352,2.617v0.048c-0.034,0.164-0.059,0.367-0.077,0.611
				c-0.017,0.245-0.058,0.53-0.125,0.856c-0.069,0.653-0.16,1.338-0.277,2.054c-0.119,0.717-0.261,1.402-0.429,2.054
				c-0.034,0.164-0.102,0.392-0.202,0.685c-0.102,0.293-0.236,0.579-0.404,0.856c-0.169,0.277-0.379,0.521-0.631,0.733
				c-0.252,0.212-0.563,0.318-0.933,0.318c-0.371,0-0.775-0.147-1.211-0.44l-0.2-0.196v-0.293c0.133-0.945,0.268-1.907,0.402-2.885
				c0.135-0.979,0.269-1.989,0.404-3.032c0.269-1.859,0.53-3.717,0.782-5.576c0.252-1.858,0.462-3.765,0.629-5.721
				c0.067-0.783,0.135-1.573,0.202-2.372c0.067-0.799,0.135-1.573,0.202-2.324c0.169-2.347,0.354-4.605,0.555-6.774
				c0.202-2.168,0.587-4.247,1.159-6.235l0.1-0.245l0.253-0.098c0.335-0.065,0.587-0.098,0.756-0.098
				c0.908,0,1.715,0.424,2.421,1.272c0.269,0.326,0.512,0.668,0.731,1.026c0.219,0.36,0.412,0.702,0.58,1.027
				c0.369,0.555,0.681,1.142,0.933,1.761c0.252,0.62,0.512,1.239,0.781,1.858c0.067,0.261,0.152,0.489,0.253,0.685
				c0.1,0.196,0.183,0.408,0.252,0.636c0.739,1.565,1.511,3.114,2.319,4.646c0.807,1.533,1.596,3.032,2.37,4.499
				c0.369-0.554,0.721-1.263,1.058-2.127c0.336-0.864,0.673-1.793,1.009-2.788c0.335-0.994,0.656-2.029,0.958-3.105
				c0.304-1.076,0.588-2.119,0.857-3.13c0.369-1.336,0.723-2.559,1.059-3.668c0.335-1.109,0.638-1.989,0.908-2.641l0.05-0.147
				L138.416,244.754z"/>
			<path fill="#846242" d="M162.568,278.255c-1.58-1.206-2.816-2.755-3.707-4.646s-1.419-4.027-1.588-6.407
				c-0.167-2.25,0.042-4.516,0.631-6.799c0.588-2.281,1.471-4.401,2.647-6.357c0.673-1.077,1.496-2.111,2.471-3.106
				c0.975-0.994,1.984-1.85,3.026-2.568l0.1-0.048c0.504-0.358,1.042-0.749,1.613-1.174c0.571-0.423,1.186-0.807,1.842-1.149
				c0.656-0.342,1.336-0.627,2.042-0.856c0.706-0.228,1.429-0.342,2.169-0.342c0.469,0,0.923,0.057,1.361,0.171
				c0.437,0.114,0.873,0.268,1.311,0.464c0.133,0.033,0.302,0.091,0.504,0.171c0.202,0.082,0.377,0.213,0.529,0.391
				c0.152,0.18,0.269,0.416,0.354,0.71c0.083,0.293,0.075,0.652-0.025,1.076l-0.052,0.343l-0.302,0.049
				c-0.135,0.033-0.319,0.049-0.554,0.049c-0.271,0-0.505-0.032-0.707-0.098c-0.202-0.065-0.386-0.13-0.554-0.196
				c-0.169-0.065-0.336-0.13-0.504-0.196c-0.169-0.065-0.354-0.098-0.555-0.098c-0.975,0-1.975,0.277-2.999,0.831
				c-1.026,0.555-1.942,1.077-2.749,1.565c-0.167,0.131-0.344,0.253-0.529,0.366c-0.185,0.115-0.361,0.221-0.529,0.318
				c-1.109,0.88-2.211,2.047-3.303,3.496c-1.094,1.451-2.026,3.074-2.799,4.866c-0.773,1.794-1.294,3.685-1.563,5.674
				c-0.269,1.989-0.117,3.978,0.454,5.966c0.336,1.109,0.882,2.136,1.64,3.082c0.756,0.946,1.655,1.769,2.698,2.47
				c1.041,0.701,2.194,1.247,3.453,1.638c1.261,0.391,2.563,0.587,3.909,0.587c0.638,0,1.277-0.041,1.915-0.122
				c0.638-0.081,1.278-0.221,1.917-0.416c1.244-0.358,2.1-1.712,2.571-4.059c0.202-1.076,0.311-2.233,0.329-3.473
				c0.017-1.238,0.025-2.428,0.025-3.57v-2.837c-0.169-0.032-0.336-0.049-0.504-0.049c-0.169,0-0.354,0-0.555,0
				c-0.269,0-0.512,0-0.731,0s-0.463,0.016-0.731,0.049c-0.236,0-0.463,0.009-0.681,0.024c-0.219,0.017-0.463,0.025-0.732,0.025
				h-0.604h-0.857c-0.471,0-0.95-0.032-1.438-0.098c-0.487-0.065-0.848-0.26-1.083-0.587c-0.102-0.098-0.177-0.228-0.227-0.392
				c-0.052-0.163-0.044-0.374,0.025-0.635c0.133-0.619,0.596-1.01,1.386-1.174c0.789-0.163,1.638-0.244,2.546-0.244h1.159
				c0.169,0.033,0.319,0.049,0.455,0.049c0.133,0,0.268,0,0.402,0c0.169,0,0.344-0.007,0.53-0.024
				c0.185-0.016,0.377-0.024,0.579-0.024h1.261c0.638,0,1.244,0.057,1.815,0.171c0.571,0.114,0.992,0.4,1.261,0.856
				c0.235,0.261,0.327,0.603,0.277,1.026c-0.05,0.425-0.127,0.881-0.227,1.37c-0.169,0.555-0.252,1.044-0.252,1.467v0.049
				c-0.034,0.457-0.059,0.913-0.075,1.369c-0.019,0.457-0.027,0.913-0.027,1.369c-0.033,0.881-0.075,1.761-0.125,2.641
				c-0.05,0.88-0.127,1.736-0.227,2.568c-0.102,0.832-0.261,1.606-0.479,2.323c-0.219,0.717-0.498,1.37-0.832,1.957
				c-0.102,0.228-0.261,0.481-0.479,0.758c-0.219,0.277-0.463,0.546-0.731,0.807c-0.271,0.261-0.548,0.498-0.832,0.71
				c-0.286,0.212-0.548,0.35-0.782,0.415c-1.311,0.456-2.757,0.685-4.336,0.685c-0.976,0-1.984-0.081-3.026-0.244
				c-1.042-0.164-2.034-0.391-2.974-0.685c-0.942-0.293-1.815-0.635-2.622-1.026C163.779,279.136,163.106,278.712,162.568,278.255z"
				/>
			<path fill="#846242" d="M203.259,280.016l-0.404,0.342c-0.638,0.522-1.547,0.783-2.723,0.783c-0.606,0-1.211-0.049-1.815-0.147
				c-0.271-0.033-0.538-0.057-0.807-0.074c-0.269-0.016-0.521-0.024-0.756-0.024h-0.052h-0.756c-1.782-0.066-3.58-0.163-5.395-0.293
				c-1.815-0.13-3.632-0.375-5.447-0.734l-0.352-0.098l-0.05-0.342c-0.338-2.967-0.498-5.999-0.48-9.097
				c0.017-3.097,0.059-6.194,0.127-9.292c0.067-2.608,0.108-5.224,0.125-7.849c0.017-2.624-0.058-5.176-0.227-7.654
				c-0.033-0.326,0.017-0.555,0.152-0.685c0.202-0.228,0.487-0.342,0.857-0.342c0.135,0,0.277,0.016,0.429,0.049
				c0.152,0.033,0.294,0.066,0.429,0.098c0.067,0,0.125,0.009,0.177,0.025c0.05,0.016,0.092,0.024,0.125,0.024h0.304l0.15,0.244
				c0.404,0.783,0.631,1.623,0.681,2.519c0.052,0.897,0.059,1.802,0.025,2.714c-0.033,0.261-0.05,0.506-0.05,0.734
				c0,0.228,0,0.473,0,0.734c0,0.522,0.017,1.035,0.05,1.54c0.034,0.505,0.067,1.002,0.102,1.491
				c0.067,0.652,0.125,1.296,0.177,1.932c0.05,0.635,0.041,1.263-0.025,1.882c-0.169,1.827-0.286,3.563-0.354,5.209
				c-0.067,1.647-0.11,3.252-0.127,4.817c-0.017,1.565,0,3.106,0.052,4.622c0.05,1.516,0.125,3.057,0.227,4.621
				c0.335,0.033,0.671,0.066,1.008,0.098c0.336,0.033,0.688,0.066,1.059,0.098c0.537,0.066,1.075,0.123,1.613,0.171
				c0.538,0.049,1.092,0.106,1.665,0.171c0.167,0.033,0.352,0.049,0.554,0.049s0.404,0,0.606,0c0.369,0,0.731-0.007,1.084-0.024
				c0.352-0.016,0.714-0.041,1.084-0.074c0.335,0,0.671-0.007,1.008-0.024c0.336-0.016,0.656-0.024,0.958-0.024
				c0.807,0,1.63,0.081,2.471,0.244c0.84,0.164,1.563,0.555,2.169,1.174L203.259,280.016z"/>
			<path fill="#846242" d="M209.208,278.989c-1.077-0.749-1.95-1.752-2.622-3.007c-0.673-1.255-1.219-2.658-1.638-4.207
				c-0.421-1.547-0.74-3.186-0.958-4.915c-0.219-1.728-0.396-3.439-0.53-5.135c0-0.228-0.008-0.448-0.025-0.66
				c-0.017-0.211-0.042-0.447-0.075-0.709c-0.202-2.282-0.371-4.507-0.504-6.676c-0.135-2.168-0.119-4.329,0.05-6.48
				c0.033-0.423,0.092-0.888,0.177-1.394c0.083-0.505,0.243-0.921,0.479-1.247l0.152-0.244h0.252h0.302
				c0.739,0,1.261,0.179,1.563,0.537c0.269,0.293,0.386,0.66,0.354,1.101c-0.034,0.44-0.084,0.889-0.152,1.345
				c-0.034,0.228-0.067,0.44-0.1,0.636c-0.034,0.196-0.069,0.408-0.102,0.635c-0.067,1.207-0.05,2.536,0.05,3.986
				c0.102,1.451,0.235,2.91,0.404,4.377c0.202,1.598,0.354,3.081,0.454,4.451c0.167,2.511,0.386,4.743,0.656,6.7
				c0.269,1.956,0.688,3.668,1.261,5.135v0.049c0.202,0.555,0.504,1.191,0.908,1.907c0.404,0.717,0.857,1.304,1.361,1.761
				c0.471,0.424,1.184,0.815,2.144,1.173c0.958,0.359,1.973,0.537,3.05,0.537c0.94,0,1.748-0.163,2.421-0.489
				c1.277-0.554,2.319-2.526,3.126-5.918c0.369-1.467,0.638-2.959,0.807-4.475c0.167-1.515,0.285-2.828,0.352-3.937
				c0.102-1.597,0.117-3.431,0.05-5.501s-0.217-4.296-0.454-6.676c-0.033-0.294-0.067-0.588-0.1-0.881
				c-0.034-0.293-0.085-0.57-0.152-0.831c-0.167-0.848-0.294-1.688-0.377-2.519c-0.084-0.831,0.041-1.621,0.377-2.372l0.102-0.244
				l0.302-0.049c0.94-0.032,1.613,0.278,2.017,0.929c0.135,0.261,0.219,0.522,0.252,0.782c0.033,0.261,0.067,0.538,0.102,0.832
				c0.033,0.131,0.05,0.253,0.05,0.367c0,0.114,0.017,0.22,0.05,0.318v0.049c0.437,2.347,0.74,4.915,0.908,7.702
				c0.169,2.788,0.202,5.47,0.102,8.046c-0.034,1.141-0.11,2.347-0.227,3.619c-0.119,1.271-0.296,2.543-0.53,3.815
				c-0.235,1.271-0.546,2.494-0.933,3.668c-0.386,1.174-0.865,2.218-1.436,3.13c-0.673,0.978-1.615,1.745-2.824,2.299
				c-1.21,0.554-2.59,0.832-4.134,0.832c-1.245,0-2.446-0.189-3.607-0.563C211.2,280.204,210.149,279.673,209.208,278.989z
				 M219.546,234.435c0.235,0.066,0.494,0.171,0.781,0.318c0.285,0.146,0.479,0.432,0.581,0.855v0.147l-0.052,0.098
				c-0.167,0.391-0.369,0.709-0.604,0.954c-0.236,0.245-0.488,0.481-0.757,0.709c-0.167,0.131-0.327,0.269-0.479,0.416
				c-0.15,0.146-0.311,0.302-0.479,0.465c-0.269,0.359-0.529,0.733-0.781,1.124c-0.253,0.392-0.513,0.8-0.782,1.223
				c-0.504,0.848-1.017,1.614-1.538,2.299c-0.521,0.685-1.169,1.027-1.942,1.027c-0.471,0-0.925-0.146-1.361-0.44l-0.302-0.196
				l0.05-0.342c0.235-0.814,0.596-1.622,1.084-2.421c0.487-0.799,0.965-1.492,1.438-2.079c1.242-1.663,2.604-3.082,4.084-4.255
				l0.302-0.244l0.304,0.196C219.192,234.355,219.344,234.403,219.546,234.435z"/>
			<path fill="#846242" d="M235.679,247.836c-0.437-0.13-1.127-0.196-2.067-0.196c-0.336,0-0.681,0-1.033,0
				c-0.354,0-0.715,0.016-1.084,0.049c-0.371,0.033-0.74,0.057-1.109,0.074c-0.371,0.016-0.74,0.024-1.109,0.024
				c-0.471,0-0.942-0.024-1.413-0.074c-0.471-0.049-0.915-0.146-1.336-0.293c-0.419-0.146-0.79-0.374-1.109-0.685
				c-0.319-0.31-0.529-0.709-0.629-1.198l-0.152-0.538l0.606-0.049c0.739-0.065,1.486-0.122,2.244-0.171
				c0.756-0.049,1.538-0.074,2.344-0.074c0.875,0,1.757,0.016,2.647,0.049c0.89,0.033,1.807,0.082,2.748,0.147
				c0.74,0.066,1.488,0.106,2.245,0.122c0.756,0.017,1.554,0.041,2.394,0.074h0.05h0.606c0.269,0,0.521,0,0.757,0
				c0.235,0,0.487-0.016,0.756-0.049c0.269,0,0.521-0.007,0.756-0.024c0.235-0.016,0.488-0.024,0.757-0.024
				c0.706,0,1.419,0.098,2.142,0.293s1.269,0.669,1.64,1.418l0.1,0.244l-0.152,0.196c-0.235,0.392-0.537,0.636-0.908,0.734
				c-0.369,0.098-0.723,0.147-1.058,0.147c-0.169,0-0.321-0.008-0.454-0.025c-0.135-0.016-0.286-0.024-0.454-0.024
				c-0.136,0-0.271-0.008-0.404-0.024c-0.135-0.016-0.252-0.024-0.354-0.024c-0.336,0-0.656,0.008-0.958,0.024
				c-0.302,0.016-0.588,0.024-0.857,0.024c-0.269,0-0.554,0.009-0.857,0.024c-0.302,0.017-0.588,0.025-0.857,0.025
				c-0.235,0-0.462-0.008-0.681-0.025c-0.219-0.016-0.429-0.024-0.629-0.024c0.1,1.663,0.167,3.456,0.2,5.379
				c0.034,1.925,0.042,3.905,0.027,5.943c-0.019,2.038-0.044,4.092-0.077,6.162c-0.033,2.071-0.067,4.101-0.1,6.089
				c-0.034,0.946-0.05,1.867-0.05,2.763c0,0.897-0.019,1.769-0.052,2.617v0.048v0.978c0.067,0.457,0.092,0.914,0.077,1.37
				c-0.017,0.457-0.161,0.913-0.429,1.369l-0.102,0.147l-0.202,0.049c-0.167,0.065-0.311,0.098-0.429,0.098
				c-0.117,0-0.244,0-0.377,0c-0.438,0-0.775-0.131-1.009-0.391c-0.269-0.261-0.421-0.595-0.454-1.003
				c-0.033-0.407-0.05-0.79-0.05-1.149c0.033-0.13,0.05-0.293,0.05-0.489c0.102-2.803,0.167-5.485,0.202-8.045
				c0.033-2.559,0.042-5.062,0.025-7.507c-0.017-2.445-0.059-4.866-0.125-7.262C235.864,252.751,235.781,250.314,235.679,247.836z"
				/>
			<path fill="#846242" d="M262.658,243.898c0.167-0.016,0.352-0.024,0.554-0.024c0.235-0.032,0.471-0.056,0.706-0.074
				c0.235-0.016,0.487-0.024,0.757-0.024c0.268,0,0.587,0.033,0.958,0.098c0.369,0.066,0.688,0.228,0.958,0.489
				c0.269,0.261,0.386,0.636,0.354,1.125v0.147l-0.102,0.098c-0.336,0.424-0.756,0.692-1.26,0.807
				c-0.505,0.115-1.026,0.171-1.563,0.171c-0.135,0-0.261-0.008-0.379-0.024c-0.117-0.016-0.244-0.025-0.379-0.025h-0.604
				c-0.404,0.033-0.807,0.049-1.211,0.049s-0.84,0.016-1.311,0.049c-1.613,0.033-3.244,0.091-4.891,0.171
				c-1.646,0.082-3.109,0.253-4.386,0.513c0,2.218-0.009,4.524-0.025,6.921c-0.017,2.396-0.059,4.866-0.127,7.41
				c1.042,0.098,2.034,0.164,2.974,0.196c0.942,0.033,1.849,0.048,2.724,0.048c0.671,0,1.302-0.008,1.89-0.024
				c0.588-0.016,1.167-0.041,1.74-0.074c0.235-0.032,0.469-0.065,0.706-0.098c0.235-0.032,0.487-0.065,0.756-0.098
				c0.371-0.065,0.723-0.122,1.059-0.171c0.336-0.049,0.673-0.073,1.009-0.073c1.142,0,2,0.424,2.571,1.271l0.202,0.293
				l-0.302,0.293c-0.438,0.424-0.967,0.677-1.588,0.758c-0.623,0.082-1.253,0.155-1.892,0.22c-0.169,0-0.344,0-0.529,0
				c-0.186,0-0.361,0.017-0.53,0.049c-1.21,0.131-2.471,0.22-3.782,0.269c-1.31,0.048-2.655,0.073-4.034,0.073
				c-0.471,0-0.95,0-1.436,0c-0.488,0-0.967-0.016-1.438-0.048c-0.067,0.685-0.117,1.353-0.15,2.005
				c-0.034,0.652-0.084,1.289-0.152,1.907c-0.169,1.858-0.302,3.619-0.404,5.282c-0.1,1.663-0.167,3.456-0.202,5.38
				c0.84,0.098,1.748,0.146,2.724,0.146c0.806,0,1.621-0.024,2.446-0.074c0.823-0.049,1.638-0.105,2.446-0.171
				c0.773-0.065,1.554-0.13,2.344-0.196c0.79-0.065,1.571-0.098,2.345-0.098c1.175,0,2.167,0.081,2.974,0.244
				c0.807,0.164,1.479,0.408,2.017,0.734l0.354,0.244l-0.202,0.343c-0.336,0.945-1.094,1.418-2.27,1.418
				c-0.269,0-0.554-0.017-0.856-0.049c-0.304-0.033-0.59-0.081-0.857-0.146c-0.504-0.098-0.992-0.147-1.463-0.147
				c-0.74,0-1.486,0.024-2.244,0.074c-0.756,0.049-1.555,0.106-2.396,0.171c-0.873,0.065-1.738,0.122-2.596,0.171
				c-0.857,0.048-1.723,0.073-2.597,0.073c-0.975,0-1.849-0.041-2.622-0.122c-0.773-0.081-1.496-0.22-2.167-0.415l-0.304-0.098
				l-0.05-0.343c-0.1-2.771-0.11-5.624-0.025-8.559c0.083-2.934,0.177-5.868,0.277-8.803c0.135-3.228,0.244-6.341,0.329-9.341
				c0.083-2.999,0.041-5.885-0.127-8.656v-0.392l0.354-0.098c1.277-0.521,2.84-0.831,4.689-0.929
				c1.848-0.098,3.73-0.163,5.647-0.196c0.739,0,1.446-0.008,2.119-0.025c0.671-0.016,1.327-0.04,1.965-0.073h0.052
				C262.337,243.923,262.489,243.916,262.658,243.898z"/>
			<path fill="#846242" d="M286.155,244.51c0.335-0.196,0.706-0.293,1.109-0.293c0.571,0,1.075,0.212,1.512,0.635l0.102,0.098
				l0.05,0.196c0.167,2.446,0.302,5.038,0.404,7.776c0.1,2.739,0.235,5.494,0.404,8.265c0.167,3.294,0.31,6.587,0.429,9.879
				c0.117,3.294,0.344,6.375,0.681,9.243l0.05,0.342l-0.302,0.147c-0.473,0.261-0.892,0.391-1.261,0.391
				c-0.371,0-0.69-0.09-0.958-0.269c-0.271-0.178-0.513-0.399-0.732-0.66c-0.219-0.261-0.402-0.545-0.554-0.856
				c-0.152-0.309-0.294-0.595-0.429-0.856v-0.098c-0.404-0.847-0.8-1.727-1.184-2.64c-0.388-0.913-0.782-1.859-1.186-2.837
				c-0.571-1.434-1.152-2.844-1.74-4.23c-0.588-1.386-1.217-2.649-1.89-3.79c-1.58-2.771-3.084-5.429-4.513-7.972
				c-1.43-2.543-2.799-4.775-4.11-6.7c-0.067,0.848-0.142,1.932-0.227,3.252c-0.085,1.321-0.167,2.763-0.252,4.329
				c-0.085,1.565-0.177,3.212-0.277,4.939c-0.102,1.729-0.194,3.432-0.277,5.111c-0.085,1.68-0.169,3.276-0.252,4.793
				c-0.084,1.516-0.144,2.861-0.177,4.035c-0.034,0.947-0.085,1.753-0.152,2.421c-0.067,0.668-0.1,1.1-0.1,1.296v0.343l-0.354,0.098
				c-0.202,0.065-0.446,0.13-0.731,0.196c-0.286,0.065-0.581,0.098-0.882,0.098c-0.336,0-0.623-0.048-0.857-0.146l-0.302-0.147
				v-0.343c0.167-4.825,0.419-10.124,0.756-15.894c0.167-2.348,0.31-4.678,0.429-6.993c0.117-2.315,0.21-4.613,0.277-6.896
				c0.033-0.847,0.067-1.679,0.102-2.494c0.033-0.814,0.066-1.63,0.1-2.445v-0.392l0.354-0.098c0.167-0.032,0.31-0.056,0.429-0.073
				c0.117-0.016,0.243-0.025,0.377-0.025c0.538,0,1.042,0.123,1.513,0.367c0.471,0.245,0.908,0.538,1.311,0.88
				c0.404,0.343,0.764,0.718,1.084,1.125c0.319,0.408,0.596,0.775,0.832,1.101c1.175,2.054,2.336,4.027,3.478,5.918
				c1.142,1.891,2.244,3.807,3.303,5.746c1.059,1.94,2.084,3.945,3.076,6.015c0.99,2.071,1.94,4.279,2.849,6.627
				c0-0.979-0.044-2.104-0.127-3.375c-0.084-1.271-0.177-2.583-0.277-3.937c-0.102-1.353-0.211-2.698-0.329-4.035
				c-0.117-1.337-0.21-2.575-0.277-3.717c-0.135-2.413-0.261-4.72-0.379-6.921c-0.117-2.201-0.175-4.23-0.175-6.089v-0.293
				L286.155,244.51z"/>
		</g>
	</g>
</g>
</svg>
